<?xml version="1.0" encoding="utf-8"?>
<!-- Generated by IcoMoon.io -->
<!DOCTYPE svg PUBLIC "-//W3C//DTD SVG 1.1//EN" "http://www.w3.org/Graphics/SVG/1.1/DTD/svg11.dtd">
<svg version="1.1" xmlns="http://www.w3.org/2000/svg" xmlns:xlink="http://www.w3.org/1999/xlink" width="32" height="32" viewBox="0 0 32 32">
<path d="M32 24v2.286q0 0.476-0.333 0.81t-0.81 0.333h-29.714q-0.476 0-0.81-0.333t-0.333-0.81v-2.286q0-0.476 0.333-0.81t0.81-0.333h29.714q0.476 0 0.81 0.333t0.333 0.81zM32 17.143v2.286q0 0.476-0.333 0.81t-0.81 0.333h-22.857q-0.476 0-0.81-0.333t-0.333-0.81v-2.286q0-0.476 0.333-0.81t0.81-0.333h22.857q0.476 0 0.81 0.333t0.333 0.81zM32 10.286v2.286q0 0.476-0.333 0.81t-0.81 0.333h-27.429q-0.476 0-0.81-0.333t-0.333-0.81v-2.286q0-0.476 0.333-0.81t0.81-0.333h27.429q0.476 0 0.81 0.333t0.333 0.81zM32 3.429v2.286q0 0.476-0.333 0.81t-0.81 0.333h-20.571q-0.476 0-0.81-0.333t-0.333-0.81v-2.286q0-0.476 0.333-0.81t0.81-0.333h20.571q0.476 0 0.81 0.333t0.333 0.81z"></path>
</svg>
