<?xml version="1.0" encoding="utf-8"?>
<!-- Generated by IcoMoon.io -->
<!DOCTYPE svg PUBLIC "-//W3C//DTD SVG 1.1//EN" "http://www.w3.org/Graphics/SVG/1.1/DTD/svg11.dtd">
<svg version="1.1" xmlns="http://www.w3.org/2000/svg" xmlns:xlink="http://www.w3.org/1999/xlink" width="30" height="32" viewBox="0 0 30 32">
<path d="M13.714 17.143v6.857q0 1.429-1 2.429t-2.429 1h-6.857q-1.429 0-2.429-1t-1-2.429v-12.571q0-3.778 2.683-6.46t6.46-2.683h1.143q0.476 0 0.81 0.333t0.333 0.81v2.286q0 0.476-0.333 0.81t-0.81 0.333h-1.143q-1.873 0-3.222 1.349t-1.349 3.222v0.571q0 0.698 0.508 1.206t1.206 0.508h4q1.429 0 2.429 1t1 2.429zM29.714 17.143v6.857q0 1.429-1 2.429t-2.429 1h-6.857q-1.429 0-2.429-1t-1-2.429v-12.571q0-3.778 2.683-6.46t6.46-2.683h1.143q0.476 0 0.81 0.333t0.333 0.81v2.286q0 0.476-0.333 0.81t-0.81 0.333h-1.143q-1.873 0-3.222 1.349t-1.349 3.222v0.571q0 0.698 0.508 1.206t1.206 0.508h4q1.429 0 2.429 1t1 2.429z"></path>
</svg>
