<?xml version="1.0" encoding="utf-8"?>
<!-- Generated by IcoMoon.io -->
<!DOCTYPE svg PUBLIC "-//W3C//DTD SVG 1.1//EN" "http://www.w3.org/Graphics/SVG/1.1/DTD/svg11.dtd">
<svg version="1.1" xmlns="http://www.w3.org/2000/svg" xmlns:xlink="http://www.w3.org/1999/xlink" width="25" height="32" viewBox="0 0 25 32">
<path d="M9.651 21.556l-0.032 2.921q0 2.064 0.286 2.698 1.333 0.54 2.508 0.54 6.73 0 6.73-5.968 0-2-0.762-3.206-1.111-1.81-2.698-2.317t-3.556-0.508-2.476 0.19v5.651zM9.524 4.349l0.127 5.429v4.064q0.889 0.127 1.968 0.127 3.048 0 4.667-1.143t1.619-3.794-1.762-3.778-4.302-1.127q-0.984 0-2.317 0.222zM9.587 29.302q-3.397 0-9.587 0.413l0.032-1.683q0.286-0.064 1.524-0.286t1.873-0.476q0.54-0.952 0.54-2.921v-1.175q0-17.619-0.381-18.317-0.254-0.413-2.063-0.571-0.381-0.032-0.873-0.079t-0.556-0.048l-0.064-1.492q1.841-0.032 6.143-0.206t6.587-0.175l2.444 0.032q4.762 0 7.143 2.825 1.333 1.524 1.333 3.714 0 2.317-1.587 3.587-0.825 0.667-1.492 1.048t-1.873 0.921q2.762 0.603 4.587 2.381t1.825 4.206-0.936 4.079-2.556 2.54q-3.111 1.778-7.333 1.778z"></path>
</svg>
