<?xml version="1.0" encoding="utf-8"?>
<!-- Generated by IcoMoon.io -->
<!DOCTYPE svg PUBLIC "-//W3C//DTD SVG 1.1//EN" "http://www.w3.org/Graphics/SVG/1.1/DTD/svg11.dtd">
<svg version="1.1" xmlns="http://www.w3.org/2000/svg" xmlns:xlink="http://www.w3.org/1999/xlink" width="25" height="32" viewBox="0 0 25 32">
<path d="M22.667 22.381q0.508 0.571 0.508 1.254t-0.508 1.19l-2.413 2.413q-0.508 0.508-1.19 0.508t-1.254-0.508l-5.238-5.238-5.238 5.238q-0.571 0.508-1.254 0.508t-1.19-0.508l-2.413-2.413q-0.508-0.508-0.508-1.19t0.508-1.254l5.238-5.238-5.238-5.238q-0.508-0.571-0.508-1.254t0.508-1.19l2.413-2.413q0.508-0.508 1.19-0.508t1.254 0.508l5.238 5.238 5.238-5.238q0.571-0.508 1.254-0.508t1.19 0.508l2.413 2.413q0.508 0.508 0.508 1.19t-0.508 1.254l-5.238 5.238z"></path>
</svg>
