<?xml version="1.0" encoding="utf-8"?>
<!-- Generated by IcoMoon.io -->
<!DOCTYPE svg PUBLIC "-//W3C//DTD SVG 1.1//EN" "http://www.w3.org/Graphics/SVG/1.1/DTD/svg11.dtd">
<svg version="1.1" xmlns="http://www.w3.org/2000/svg" xmlns:xlink="http://www.w3.org/1999/xlink" width="34" height="32" viewBox="0 0 34 32">
<path d="M11.016 24.984l-0.889 0.889q-0.413 0.413-0.825 0l-8.317-8.317q-0.413-0.413 0-0.825l8.317-8.317q0.413-0.413 0.825 0l0.889 0.889q0.413 0.413 0 0.825l-7.016 7.016 7.016 7.016q0.413 0.413 0 0.825zM21.556 5.936l-6.635 23.048q-0.159 0.54-0.73 0.381l-1.079-0.317q-0.571-0.127-0.381-0.698l6.635-23.048q0.159-0.54 0.73-0.381l1.079 0.317q0.571 0.127 0.381 0.698zM33.302 17.556l-8.317 8.317q-0.413 0.413-0.825 0l-0.889-0.889q-0.413-0.413 0-0.825l7.016-7.016-7.016-7.016q-0.413-0.413 0-0.825l0.889-0.889q0.413-0.413 0.825 0l8.317 8.317q0.413 0.413 0 0.825z"></path>
</svg>
