<?xml version="1.0" encoding="utf-8"?>
<!-- Generated by IcoMoon.io -->
<!DOCTYPE svg PUBLIC "-//W3C//DTD SVG 1.1//EN" "http://www.w3.org/Graphics/SVG/1.1/DTD/svg11.dtd">
<svg version="1.1" xmlns="http://www.w3.org/2000/svg" xmlns:xlink="http://www.w3.org/1999/xlink" width="30" height="32" viewBox="0 0 30 32">
<path d="M9.905 18.032l5.333 0.064q0.159 0 0.492-0.016t0.492-0.016q-1.524-4.54-3.27-8.063zM4.222 29.333l-0.857 0.127q-1.524 0.254-3.365 0.254l0.032-1.429q0.444-0.127 1.238-0.254t1.254-0.238 0.984-0.508 0.778-1.064l9.238-23.936h2.286l3.841 8.952q0.571 1.333 1.873 4.556t1.857 4.46 1.317 3.175q1.365 3.524 1.778 3.857t1.651 0.587 1.492 0.349l0.095 1.048q0 0.286-0.032 0.444l-6.794-0.286q-0.667 0-7.016 0.254 0-0.444 0.063-1.397l2.349-0.476q0.032 0 0.254-0.064l0.317-0.095q0.857-0.254 0.857-0.762 0-0.667-2.603-6.667l-8.032-0.032q-0.508 1.206-1.381 3.587t-0.873 2.794 0.254 0.698 0.762 0.429 0.889 0.222 1 0.143 0.746 0.095v1.048q0 0.317-0.032 0.476z"></path>
</svg>
