<?xml version="1.0" encoding="utf-8"?>
<!-- Generated by IcoMoon.io -->
<!DOCTYPE svg PUBLIC "-//W3C//DTD SVG 1.1//EN" "http://www.w3.org/Graphics/SVG/1.1/DTD/svg11.dtd">
<svg version="1.1" xmlns="http://www.w3.org/2000/svg" xmlns:xlink="http://www.w3.org/1999/xlink" width="34" height="32" viewBox="0 0 34 32">
<path d="M11.429 10.286q0 1.429-1 2.429t-2.429 1-2.429-1-1-2.429 1-2.429 2.429-1 2.429 1 1 2.429zM29.714 17.143v8h-25.143v-3.429l5.714-5.714 2.857 2.857 9.143-9.143zM31.429 4.571h-28.571q-0.254 0-0.413 0.159t-0.159 0.413v21.714q0 0.254 0.159 0.413t0.413 0.159h28.571q0.254 0 0.413-0.159t0.159-0.413v-21.714q0-0.254-0.159-0.413t-0.413-0.159zM34.286 5.143v21.714q0 1.175-0.841 2.016t-2.016 0.841h-28.571q-1.175 0-2.016-0.841t-0.841-2.016v-21.714q0-1.206 0.825-2.032t2.032-0.825h28.571q1.206 0 2.032 0.825t0.825 2.032z"></path>
</svg>
