<?xml version="1.0" encoding="utf-8"?>
<!-- Generated by IcoMoon.io -->
<!DOCTYPE svg PUBLIC "-//W3C//DTD SVG 1.1//EN" "http://www.w3.org/Graphics/SVG/1.1/DTD/svg11.dtd">
<svg version="1.1" xmlns="http://www.w3.org/2000/svg" xmlns:xlink="http://www.w3.org/1999/xlink" width="18" height="32" viewBox="0 0 18 32">
<path d="M11.492 29.714l-3.111-0.349q-2.413-0.064-3.492-0.064t-2.73 0.175-2.159 0.206l0.317-1.524q0.381-0.127 1.079-0.286 1.556-0.349 2.349-0.762 0.508-0.667 0.73-1.81 0.159-0.444 1.746-8.032 2.349-11.206 2.349-12.127l-0.032-0.444q-0.698-0.413-1.794-0.46t-1.444-0.111l0.349-1.841 6.952 0.286q1.333 0 3.19-0.127t2.492-0.159q-0.095 0.762-0.349 1.587-0.476 0.159-1.778 0.508t-1.968 0.603q-0.19 0.444-0.667 3.032t-1.508 7.302-1.746 7.984-0.683 3.714l0.032 0.317q0.667 0.159 3.302 0.54-0.063 0.921-0.286 1.778z"></path>
</svg>
