<?xml version="1.0" encoding="utf-8"?>
<!-- Generated by IcoMoon.io -->
<!DOCTYPE svg PUBLIC "-//W3C//DTD SVG 1.1//EN" "http://www.w3.org/Graphics/SVG/1.1/DTD/svg11.dtd">
<svg version="1.1" xmlns="http://www.w3.org/2000/svg" xmlns:xlink="http://www.w3.org/1999/xlink" width="30" height="32" viewBox="0 0 30 32">
<path d="M25.492 22.921q0.508-0.508 0.508-1.222t-0.508-1.19l-3.714-3.714q-0.476-0.508-1.206-0.508t-1.302 0.571q0.095 0.095 0.365 0.349t0.365 0.365 0.254 0.333q0.317 0.381 0.317 1.016t-0.508 1.143-0.984 0.508-0.714-0.064-0.46-0.238-0.333-0.27-0.365-0.365-0.349-0.365q-0.571 0.571-0.571 1.317t0.476 1.222l3.683 3.683q0.508 0.508 1.222 0.508t1.19-0.476zM12.857 10.444q0.571-0.571 0.571-1.317t-0.476-1.222l-3.683-3.683q-0.508-0.508-1.222-0.508t-1.19 0.476l-2.635 2.603q-0.508 0.508-0.508 1.206t0.508 1.206l3.714 3.714q0.508 0.508 1.222 0.508t1.286-0.571q-0.095-0.095-0.365-0.349t-0.365-0.365-0.254-0.333q-0.317-0.381-0.317-1.016t0.508-1.143 0.984-0.508 0.714 0.063 0.46 0.238 0.333 0.27 0.365 0.365 0.349 0.365zM27.936 18.064q1.492 1.556 1.492 3.683t-1.524 3.587l-2.635 2.603q-1.492 1.492-3.619 1.492t-3.651-1.524l-3.651-3.683q-1.492-1.556-1.492-3.698t1.587-3.667l-1.587-1.587q-1.524 1.587-3.667 1.587t-3.698-1.492l-3.714-3.714q-1.492-1.556-1.492-3.683t1.524-3.587l2.635-2.603q1.492-1.492 3.619-1.492t3.651 1.524l3.651 3.683q1.492 1.556 1.492 3.698t-1.587 3.667l1.587 1.587q1.524-1.587 3.667-1.587t3.698 1.492z"></path>
</svg>
