<?xml version="1.0" encoding="utf-8"?>
<!-- Generated by IcoMoon.io -->
<!DOCTYPE svg PUBLIC "-//W3C//DTD SVG 1.1//EN" "http://www.w3.org/Graphics/SVG/1.1/DTD/svg11.dtd">
<svg version="1.1" xmlns="http://www.w3.org/2000/svg" xmlns:xlink="http://www.w3.org/1999/xlink" width="32" height="32" viewBox="0 0 32 32">
<path d="M4.19 24.571l-1.714 0.064v0.921h-1.905v-2.698h5.936v1.556l-1.683 2.064q0.921 0.222 1.444 0.873t0.524 1.825-0.968 2-2.635 0.825-2.841-1.175l1.016-1.587q0.889 0.825 1.651 0.825 1.524 0 1.524-1.016 0-1.175-1.873-1.016l-0.476-0.984q1.587-2.064 2-2.444v-0.032zM6.857 17.746v2.825h-6.476q-0.095-0.476-0.095-1.286t0.635-1.683 1.365-1.317q2.032-1.206 2.032-1.968 0-0.952-0.984-0.952-0.825 0-1.429 1.048l-1.524-1.048q0.952-1.937 3.175-1.937 1.302 0 2.19 0.746t0.889 1.825-0.603 1.825-1.333 1.127q-1.937 1.079-2 1.841h2.254v-1.048h1.905zM32 23.429v3.429q0 0.254-0.159 0.413t-0.413 0.159h-21.714q-0.254 0-0.413-0.159t-0.159-0.413v-3.429q0-0.254 0.159-0.413t0.413-0.159h21.714q0.254 0 0.413 0.159t0.159 0.413zM6.857 7.397v1.746h-6v-1.746h1.937v-4.571h-0.032q-0.127 0.286-0.889 0.952l-1.27-1.365 2.444-2.254h1.873v7.238h1.937zM32 14.286v3.429q0 0.254-0.159 0.413t-0.413 0.159h-21.714q-0.254 0-0.413-0.159t-0.159-0.413v-3.429q0-0.254 0.159-0.413t0.413-0.159h21.714q0.254 0 0.413 0.159t0.159 0.413zM32 5.143v3.429q0 0.254-0.159 0.413t-0.413 0.159h-21.714q-0.254 0-0.413-0.159t-0.159-0.413v-3.429q0-0.254 0.159-0.413t0.413-0.159h21.714q0.254 0 0.413 0.159t0.159 0.413z"></path>
</svg>
