<?xml version="1.0" encoding="utf-8"?>
<!-- Generated by IcoMoon.io -->
<!DOCTYPE svg PUBLIC "-//W3C//DTD SVG 1.1//EN" "http://www.w3.org/Graphics/SVG/1.1/DTD/svg11.dtd">
<svg version="1.1" xmlns="http://www.w3.org/2000/svg" xmlns:xlink="http://www.w3.org/1999/xlink" width="32" height="32" viewBox="0 0 32 32">
<path d="M31.429 16q0.254 0 0.413 0.159t0.159 0.413v1.143q0 0.254-0.159 0.413t-0.413 0.159h-30.857q-0.254 0-0.413-0.159t-0.159-0.413v-1.143q0-0.254 0.159-0.413t0.413-0.159h30.857zM8.635 14.857q-1.778-2.286-1.778-4.794 0-3.238 2.381-5.524 2.413-2.254 7.048-2.254 2.508 0 6.127 1.206 0.19 0.698 0.397 2.381t0.206 2.587-0.064 1.19l-0.222 0.063-1.492-0.095-0.254-0.063q-0.889-2.667-1.841-3.651-1.556-1.619-3.667-1.619t-3.317 1.048-1.206 2.492 1.175 2.651 4.984 2.286q3.143 0.984 4.762 2.095h-13.238zM17.683 19.429h7.333q0.127 0.667 0.127 2.095t-0.73 3.333q-0.349 0.921-1.079 1.651t-2.111 1.619-2.778 1.238-3.54 0.349-3.571-0.413l-2.476-0.698q-1.048-0.317-1.238-0.476t-0.19-0.444v-0.222q0-1.936-0.032-2.635t0-1.349 0.032-0.683v-0.762l1.81-0.064q0.508 1.111 0.794 1.873t0.381 0.889q2 3.079 5.651 3.079 1.143 0 2.476-0.444t2.175-1.524 0.841-2.476-1.429-2.667q-0.54-0.476-2.444-1.27z"></path>
</svg>
