<?xml version="1.0" encoding="utf-8"?>
<!-- Generated by IcoMoon.io -->
<!DOCTYPE svg PUBLIC "-//W3C//DTD SVG 1.1//EN" "http://www.w3.org/Graphics/SVG/1.1/DTD/svg11.dtd">
<svg version="1.1" xmlns="http://www.w3.org/2000/svg" xmlns:xlink="http://www.w3.org/1999/xlink" width="30" height="32" viewBox="0 0 30 32">
<path d="M9.143 24.571v-3.429q0-0.254-0.159-0.413t-0.413-0.159h-5.714q-0.254 0-0.413 0.159t-0.159 0.413v3.429q0 0.254 0.159 0.413t0.413 0.159h5.714q0.254 0 0.413-0.159t0.159-0.413zM9.143 17.714v-3.429q0-0.254-0.159-0.413t-0.413-0.159h-5.714q-0.254 0-0.413 0.159t-0.159 0.413v3.429q0 0.254 0.159 0.413t0.413 0.159h5.714q0.254 0 0.413-0.159t0.159-0.413zM18.286 24.571v-3.429q0-0.254-0.159-0.413t-0.413-0.159h-5.714q-0.254 0-0.413 0.159t-0.159 0.413v3.429q0 0.254 0.159 0.413t0.413 0.159h5.714q0.254 0 0.413-0.159t0.159-0.413zM9.143 10.857v-3.429q0-0.254-0.159-0.413t-0.413-0.159h-5.714q-0.254 0-0.413 0.159t-0.159 0.413v3.429q0 0.254 0.159 0.413t0.413 0.159h5.714q0.254 0 0.413-0.159t0.159-0.413zM18.286 17.714v-3.429q0-0.254-0.159-0.413t-0.413-0.159h-5.714q-0.254 0-0.413 0.159t-0.159 0.413v3.429q0 0.254 0.159 0.413t0.413 0.159h5.714q0.254 0 0.413-0.159t0.159-0.413zM27.429 24.571v-3.429q0-0.254-0.159-0.413t-0.413-0.159h-5.714q-0.254 0-0.413 0.159t-0.159 0.413v3.429q0 0.254 0.159 0.413t0.413 0.159h5.714q0.254 0 0.413-0.159t0.159-0.413zM18.286 10.857v-3.429q0-0.254-0.159-0.413t-0.413-0.159h-5.714q-0.254 0-0.413 0.159t-0.159 0.413v3.429q0 0.254 0.159 0.413t0.413 0.159h5.714q0.254 0 0.413-0.159t0.159-0.413zM27.429 17.714v-3.429q0-0.254-0.159-0.413t-0.413-0.159h-5.714q-0.254 0-0.413 0.159t-0.159 0.413v3.429q0 0.254 0.159 0.413t0.413 0.159h5.714q0.254 0 0.413-0.159t0.159-0.413zM27.429 10.857v-3.429q0-0.254-0.159-0.413t-0.413-0.159h-5.714q-0.254 0-0.413 0.159t-0.159 0.413v3.429q0 0.254 0.159 0.413t0.413 0.159h5.714q0.254 0 0.413-0.159t0.159-0.413zM29.714 5.143v19.429q0 1.175-0.841 2.016t-2.016 0.841h-24q-1.175 0-2.016-0.841t-0.841-2.016v-19.429q0-1.175 0.841-2.016t2.016-0.841h24q1.206 0 2.032 0.825t0.825 2.032z"></path>
</svg>
