<?xml version="1.0" encoding="utf-8"?>
<!-- Generated by IcoMoon.io -->
<!DOCTYPE svg PUBLIC "-//W3C//DTD SVG 1.1//EN" "http://www.w3.org/Graphics/SVG/1.1/DTD/svg11.dtd">
<svg version="1.1" xmlns="http://www.w3.org/2000/svg" xmlns:xlink="http://www.w3.org/1999/xlink" width="27" height="32" viewBox="0 0 27 32">
<path d="M24.19 5.048l0.032 1.048q0.159 0.317 0.349 5.413t-0.175 6.81-0.889 2.635-1.857 1.968q-2.889 2.222-7.81 2.222-2.952 0-5.095-0.825t-3.19-2.159-1.413-3.143-0.365-4.571v-5.968q0-3.397-0.349-3.905t-2.571-0.603q-0.571 0-0.794-0.063l-0.064-1.556q0.222-0.032 0.698-0.032l4.984 0.222 5.587-0.159q0.444 0 0.952-0.016t0.603-0.016l-0.032 0.222 0.032 1.175v0.159q-1.175 0.159-2.238 0.159t-1.381 0.444q-0.222 0.222-0.222 2.349v1.048l0.032 4.095 0.254 4.984q0.159 3.968 2.635 5.238 1.556 0.857 3.302 0.857 3.143 0 5.016-1.397 0.825-0.635 1.175-1.143 0.667-1.079 0.984-2.175t0.317-3.238-0.064-3.016-0.19-2.19-0.222-2.841l-0.095-1.048q-0.064-1.238-0.524-1.714t-1.254-0.476l-1.81 0.032-0.254-0.063 0.064-1.524h1.492l3.651 0.19q1.27 0.063 3.492-0.19l0.317 0.032q0.127 0.603 0.127 0.81t-0.064 0.651q-0.825 0.222-1.492 0.222-1.302 0.19-1.492 0.381t-0.19 0.667zM27.429 29.143v-1.143q0-0.254-0.159-0.413t-0.413-0.159h-26.286q-0.254 0-0.413 0.159t-0.159 0.413v1.143q0 0.254 0.159 0.413t0.413 0.159h26.286q0.254 0 0.413-0.159t0.159-0.413z"></path>
</svg>
