<?xml version="1.0" encoding="utf-8"?>
<!-- Generated by IcoMoon.io -->
<!DOCTYPE svg PUBLIC "-//W3C//DTD SVG 1.1//EN" "http://www.w3.org/Graphics/SVG/1.1/DTD/svg11.dtd">
<svg version="1.1" xmlns="http://www.w3.org/2000/svg" xmlns:xlink="http://www.w3.org/1999/xlink" width="27" height="32" viewBox="0 0 27 32">
<path d="M27.429 16q0 5.651-4.032 9.683t-9.683 4.032q-3.079 0-5.825-1.302t-4.714-3.651q-0.349-0.413 0.032-0.762l2.444-2.444q0.19-0.19 0.46-0.159t0.397 0.19q1.302 1.683 3.19 2.619t4.016 0.936q3.778 0 6.46-2.683t2.683-6.46-2.683-6.46-6.365-2.683-6.317 2.444l2.444 2.476q0.571 0.508 0.254 1.238-0.254 0.698-1.048 0.698h-8q-0.476 0-0.81-0.333t-0.333-0.81v-8q0-0.794 0.698-1.048 0.73-0.317 1.238 0.254l2.317 2.286q4.032-3.778 9.571-3.778t9.571 4.032 4.032 9.683z"></path>
</svg>
