<?xml version="1.0" encoding="utf-8"?>
<!-- Generated by IcoMoon.io -->
<!DOCTYPE svg PUBLIC "-//W3C//DTD SVG 1.1//EN" "http://www.w3.org/Graphics/SVG/1.1/DTD/svg11.dtd">
<svg version="1.1" xmlns="http://www.w3.org/2000/svg" xmlns:xlink="http://www.w3.org/1999/xlink" width="30" height="32" viewBox="0 0 30 32">
<path d="M7.841 22.698l-4.571 4.571q-0.222 0.159-0.413 0.159t-0.413-0.159q-0.413-0.413 0-0.825l4.571-4.571q0.413-0.413 0.825 0t0 0.825zM10.857 23.429v5.714q0 0.254-0.159 0.413t-0.413 0.159-0.413-0.159-0.159-0.413v-5.714q0-0.254 0.159-0.413t0.413-0.159 0.413 0.159 0.159 0.413zM6.857 19.429q0 0.254-0.159 0.413t-0.413 0.159h-5.714q-0.254 0-0.413-0.159t-0.159-0.413 0.159-0.413 0.413-0.159h5.714q0.254 0 0.413 0.159t0.159 0.413zM27.936 18.064q1.492 1.556 1.492 3.683t-1.524 3.587l-2.635 2.603q-1.429 1.492-3.587 1.492t-3.683-1.524l-5.936-5.968q-0.317-0.317-0.762-1.016l4.286-0.317 4.857 4.889q0.476 0.508 1.206 0.508t1.206-0.476l2.635-2.603q0.508-0.508 0.508-1.222t-0.508-1.19l-4.889-4.921 0.317-4.286q0.476 0.286 1.016 0.762zM18.413 8.794l-4.286 0.317-4.857-4.889q-0.476-0.508-1.206-0.508t-1.206 0.476l-2.635 2.603q-0.508 0.508-0.508 1.222t0.508 1.19l4.889 4.921-0.317 4.286q-0.571-0.381-1.016-0.762l-6-6q-1.492-1.556-1.492-3.683t1.524-3.587l2.635-2.603q1.429-1.492 3.587-1.492t3.683 1.524l5.937 5.968q0.317 0.317 0.762 1.016zM29.714 10.286q0 0.254-0.159 0.413t-0.413 0.159h-5.714q-0.254 0-0.413-0.159t-0.159-0.413 0.159-0.413 0.413-0.159h5.714q0.254 0 0.413 0.159t0.159 0.413zM20 0.571v5.714q0 0.254-0.159 0.413t-0.413 0.159-0.413-0.159-0.159-0.413v-5.714q0-0.254 0.159-0.413t0.413-0.159 0.413 0.159 0.159 0.413zM27.27 3.27l-4.571 4.571q-0.222 0.159-0.413 0.159t-0.413-0.159q-0.413-0.413 0-0.825l4.571-4.571q0.413-0.413 0.825 0t0 0.825z"></path>
</svg>
