<?xml version="1.0" encoding="utf-8"?>
<!-- Generated by IcoMoon.io -->
<!DOCTYPE svg PUBLIC "-//W3C//DTD SVG 1.1//EN" "http://www.w3.org/Graphics/SVG/1.1/DTD/svg11.dtd">
<svg version="1.1" xmlns="http://www.w3.org/2000/svg" xmlns:xlink="http://www.w3.org/1999/xlink" width="32" height="32" viewBox="0 0 32 32">
<path d="M6.857 25.143q0 1.429-1 2.429t-2.429 1-2.429-1-1-2.429 1-2.429 2.429-1 2.429 1 1 2.429zM6.857 16q0 1.429-1 2.429t-2.429 1-2.429-1-1-2.429 1-2.429 2.429-1 2.429 1 1 2.429zM32 23.429v3.429q0 0.254-0.159 0.413t-0.413 0.159h-21.714q-0.254 0-0.413-0.159t-0.159-0.413v-3.429q0-0.254 0.159-0.413t0.413-0.159h21.714q0.254 0 0.413 0.159t0.159 0.413zM6.857 6.857q0 1.429-1 2.429t-2.429 1-2.429-1-1-2.429 1-2.429 2.429-1 2.429 1 1 2.429zM32 14.286v3.429q0 0.254-0.159 0.413t-0.413 0.159h-21.714q-0.254 0-0.413-0.159t-0.159-0.413v-3.429q0-0.254 0.159-0.413t0.413-0.159h21.714q0.254 0 0.413 0.159t0.159 0.413zM32 5.143v3.429q0 0.254-0.159 0.413t-0.413 0.159h-21.714q-0.254 0-0.413-0.159t-0.159-0.413v-3.429q0-0.254 0.159-0.413t0.413-0.159h21.714q0.254 0 0.413 0.159t0.159 0.413z"></path>
</svg>
